#N canvas 555 81 480 693 10;
#X declare -stdpath moonlib;
#X declare -stdpath hcs;
#X declare -stdpath ggee;
#X declare -stdpath zexy;
#X declare -lib zexy;
#X declare -path Fraise -stdpath Fraise;
#X obj 21 38 pied/pied 0 41424;
#X obj 21 16 declare -path Fraise -stdpath Fraise;
#X obj 21 115 fruit/fruit 1 fruit1 10 adc;
#N canvas 89 276 576 564 weatstone 0;
#X obj 157 386 * 0.5;
#X obj 217 250 r R4;
#X obj 184 286 + 2200;
#X text 129 122 VG = VS * ([Rx /(R4 + Rx)] - [R5/(R3 + R5)]) = 0.5
* ( Rx/(2k + Rx) - 0.96);
#X obj 157 309 /;
#X obj 157 363 -;
#X obj 258 265 r R5;
#X obj 285 311 + 2200;
#X obj 258 287 t f f;
#X obj 258 334 /;
#X obj 298 288 t b b f;
#X floatatom 157 411 8 0 0 0 - - -, f 8;
#X floatatom 160 161 5 0 0 0 - - -, f 5;
#X floatatom 160 210 8 0 0 0 - - -, f 8;
#X obj 242 185 moonlib/f2s;
#X symbolatom 242 214 10 0 0 0 - - -, f 10;
#X msg 363 317 \; R5 47000 \; R3 2200 \; R4 2200;
#X obj 157 262 t f f;
#X floatatom 238 400 5 0 0 0 - - -, f 5;
#X obj 298 267 r R3;
#X floatatom 116 352 5 0 0 0 - - -, f 5;
#X obj 159 182 * 10000;
#X msg 364 350 \; R5 47000 \; R3 2200 \; R4 10000;
#X obj 157 436 * 20;
#X floatatom 157 482 8 0 0 0 - - -, f 8;
#X msg 444 349 \; R5 10000 \; R3 10000 \; R4 10000;
#X msg 434 423 \; R5 470000 \; R3 10000 \; R4 10000;
#X msg 348 430 \; R5 220000 \; R3 10000 \; R4 10000;
#X msg 98 170 400;
#X msg 97 195 410;
#X floatatom 101 538 58 0 0 0 - - -, f 58;
#X text 179 512 0.0006;
#X obj 96 507 - 0.183396;
#X obj 277 360 * 0.455;
#X floatatom 275 382 5 0 0 0 - - -, f 5;
#X obj 80 378 * 0.455;
#X floatatom 78 400 5 0 0 0 - - -, f 5;
#X connect 0 0 11 0;
#X connect 1 0 2 1;
#X connect 2 0 4 1;
#X connect 4 0 5 0;
#X connect 4 0 20 0;
#X connect 4 0 35 0;
#X connect 5 0 0 0;
#X connect 6 0 8 0;
#X connect 7 0 9 1;
#X connect 8 0 9 0;
#X connect 8 1 7 0;
#X connect 9 0 5 1;
#X connect 9 0 18 0;
#X connect 9 0 33 0;
#X connect 10 0 9 0;
#X connect 10 1 7 0;
#X connect 10 2 7 1;
#X connect 11 0 23 0;
#X connect 12 0 21 0;
#X connect 13 0 17 0;
#X connect 14 0 15 0;
#X connect 17 0 4 0;
#X connect 17 1 2 0;
#X connect 19 0 10 0;
#X connect 21 0 13 0;
#X connect 21 0 14 0;
#X connect 23 0 24 0;
#X connect 23 0 32 0;
#X connect 28 0 12 0;
#X connect 29 0 12 0;
#X connect 32 0 30 0;
#X connect 33 0 34 0;
#X connect 35 0 36 0;
#X restore 215 53 pd weatstone;
#N canvas 52 515 457 338 HAND 0;
#X obj 113 177 cnv 15 30 30 empty canT1 T1 5 15 0 14 -24198 -1 0;
#X obj 106 142 cnv 15 30 30 empty canT2 T2 5 15 0 14 -233017 -1 0;
#X obj 148 160 cnv 15 30 30 empty canT4 T4 5 15 0 14 -233017 -1 0;
#X obj 135 78 cnv 15 30 30 empty canT6 T6 5 15 0 14 -233017 -1 0;
#X obj 174 198 cnv 15 30 30 empty canT3 T3 5 15 0 14 -258699 -1 0;
#X obj 236 196 cnv 15 30 30 empty canT10 T10 5 15 0 14 -233017 -1 0
;
#X obj 144 117 cnv 15 30 30 empty canT5 T5 5 15 0 14 -233017 -1 0;
#X obj 186 157 cnv 15 30 30 empty canT7 T7 5 15 0 14 -233017 -1 0;
#X obj 187 66 cnv 15 30 30 empty canT9 T9 5 15 0 14 -233017 -1 0;
#X obj 187 109 cnv 15 30 30 empty canT8 T8 5 15 0 14 -233017 -1 0;
#X obj 226 156 cnv 15 30 30 empty canT11 T11 5 15 0 14 -233017 -1 0
;
#X obj 231 65 cnv 15 30 30 empty canT13 T13 5 15 0 14 -233017 -1 0
;
#X obj 228 108 cnv 15 30 30 empty canT12 T12 5 15 0 14 -233017 -1 0
;
#X obj 263 156 cnv 15 30 30 empty canT14 T14 5 15 0 14 -233017 -1 0
;
#X obj 279 79 cnv 15 30 30 empty canT16 T16 5 15 0 14 -233017 -1 0
;
#X obj 272 119 cnv 15 30 30 empty canT15 T15 5 15 0 14 -233017 -1 0
;
#N canvas 491 526 540 292 select 0;
#X obj 77 35 r SELECT;
#X obj 77 104 unpack f f;
#X obj 77 60 t a b;
#X msg 173 71 1 \, 2 \, 3 \, 4 \, 5 \, 6 \, 7 \, 8 \, 9 \, 10 \, 11
\, 12 \, 13 \, 14 \, 15 \, 16;
#X msg 173 95 \; canT\$1 color 10 22;
#X msg 134 147 \; canT\$1 color 16 22;
#X msg 77 188 \; canT\$1 color 13 22;
#X obj 291 181 s SELECT;
#X msg 292 159 1 2;
#X obj 134 124 + 1;
#X obj 77 124 + 1;
#X connect 0 0 2 0;
#X connect 1 0 10 0;
#X connect 1 1 9 0;
#X connect 2 0 1 0;
#X connect 2 1 3 0;
#X connect 3 0 4 0;
#X connect 8 0 7 0;
#X connect 9 0 5 0;
#X connect 10 0 6 0;
#X restore 106 269 pd select;
#X obj 102 235 hradio 8 1 0 35 handMeasuresNum handMeasuresNum empty
0 -8 0 10 -262144 -1 -1 0;
#X obj 228 275 nbx 5 14 -1e+37 1e+37 0 0 empty MEASURE empty 0 -8 0
10 -262144 -1 -1 0 256;
#X obj 288 276 bng 15 250 50 0 clearOffset empty clearOffset 17 7 0
10 -262144 -1 -1;
#N canvas 4 75 450 300 edit 0;
#X msg 135 209 \; canT\$1 vis_size 30 30;
#X msg 164 135 2 \, 3 \, 4 \, 5 \, 6 \, 7 \, 8 \, 9 \, 10 \, 11 \,
12 \, 13 \, 14 \, 15 \, 16;
#X msg 154 241 \; canT\$1 label_pos 5 15;
#X connect 1 0 0 0;
#X connect 1 0 2 0;
#X restore 376 274 pd edit;
#X coords 0 -1 1 1 290 200 1 100 50;
#X restore 20 317 pd HAND;
#X obj 181 596 s handSession;
#X msg 181 545 Jean-Marc;
#X msg 251 544 Antoine;
#X msg 307 543 Al1;
#N canvas 350 82 929 693 Visu 0;
#X msg 524 157 1 \, 2 \, 3 \, 4 \, 5 \, 6 \, 7 \, 8;
#X obj 524 180 t f f;
#X obj 551 202 - 1;
#X obj 551 224 + 0;
#X obj 524 246 pack f f;
#X obj 524 268 s showSession;
#X obj 524 132 t b f;
#X floatatom 524 109 5 0 0 0 - - -, f 5;
#X obj 524 85 hradio 15 1 0 8 empty empty empty 0 -8 0 10 -262144 -1
-1 7;
#X obj 543 389 s showSession-highlight;
#X obj 543 366 + 1;
#X msg 514 351 0;
#X obj 546 308 hsl 145 15 0 34.9 0 0 empty empty empty -2 -8 0 10 -257985
-1 -1 0 1;
#X obj 543 328 i;
#X obj 529 523 list append 1 2 3 4;
#X obj 641 563 showByName;
#X msg 570 490 Jean-Marc 0;
#X msg 650 488 JP 0;
#X msg 502 488 Antoine \$1;
#X floatatom 502 472 5 0 100 0 - - -, f 5;
#X obj 676 523 list append 5 6 7 8;
#X floatatom 721 466 5 0 100 0 - - -, f 5;
#X msg 717 490 Jean-Marc \$1;
#X obj 504 431 hsl 145 15 0 60 0 0 empty empty empty -2 -8 0 10 -262144
-1 -1 10800 1;
#X obj 501 451 i;
#X obj 719 398 hsl 145 15 0 40 0 0 empty empty empty -2 -8 0 10 -262144
-1 -1 0 1;
#X obj 722 443 i;
#X floatatom 796 469 5 0 100 0 - - -, f 5;
#X obj 800 426 hsl 145 15 0 14.9 0 0 empty empty empty -2 -8 0 10 -262144
-1 -1 0 1;
#X obj 797 446 i;
#X msg 809 488 Veronique \$1;
#X msg 844 551 Al1 0;
#X msg 634 449 Guillaume 0;
#X obj 25 330 showSession 3;
#X msg 758 294 Aymeric 0;
#X msg 785 330 Valérie 0;
#X obj 25 6 showSession 1;
#X obj 247 492 showSession 8;
#X obj 25 168 showSession 2;
#X obj 25 492 showSession 4;
#X obj 247 6 showSession 5;
#X obj 247 168 showSession 6;
#X obj 247 330 showSession 7;
#X text 671 232 2016-06-29_17h : alternate;
#X msg 802 366 Martin 0;
#X msg 691 343 Peggy 0;
#X msg 747 627 AlainTerlutte 1;
#X msg 762 574 anonymous 0;
#X msg 832 289 Olivier 0;
#X connect 0 0 1 0;
#X connect 1 0 4 0;
#X connect 1 1 2 0;
#X connect 2 0 3 0;
#X connect 3 0 4 1;
#X connect 4 0 5 0;
#X connect 6 0 0 0;
#X connect 6 1 3 1;
#X connect 7 0 6 0;
#X connect 8 0 7 0;
#X connect 10 0 9 0;
#X connect 11 0 9 0;
#X connect 12 0 13 0;
#X connect 13 0 10 0;
#X connect 14 0 15 0;
#X connect 16 0 14 0;
#X connect 17 0 14 0;
#X connect 18 0 14 0;
#X connect 19 0 18 0;
#X connect 20 0 15 0;
#X connect 21 0 22 0;
#X connect 22 0 20 0;
#X connect 23 0 24 0;
#X connect 24 0 19 0;
#X connect 25 0 26 0;
#X connect 26 0 21 0;
#X connect 27 0 30 0;
#X connect 28 0 29 0;
#X connect 29 0 27 0;
#X connect 30 0 20 0;
#X connect 31 0 20 0;
#X connect 32 0 14 0;
#X connect 34 0 20 0;
#X connect 35 0 20 0;
#X connect 44 0 20 0;
#X connect 45 0 14 0;
#X connect 46 0 20 0;
#X connect 47 0 20 0;
#X connect 48 0 20 0;
#X restore 20 589 pd Visu;
#N canvas 9 75 700 770 test-materials-automat 0;
#X obj 135 175 s SELECT;
#X obj 92 236 r MEASURE;
#X floatatom 4 420 7 0 0 0 - - -, f 7;
#X obj 135 32 r num/side;
#X obj 135 56 unpack f f;
#X obj 135 81 * 3;
#X obj 135 103 t f f;
#X obj 162 126 + 1;
#X obj 192 80 + 1;
#X obj 135 151 pack f f;
#X obj 160 238 r num/side;
#X obj 51 385 mdemux;
#X obj 160 260 unpack f f;
#X floatatom 55 420 7 0 0 0 - - -, f 7;
#X floatatom 130 420 7 0 0 0 - - -, f 7;
#X floatatom 181 420 7 0 0 0 - - -, f 7;
#X floatatom 261 422 7 0 0 0 - - -, f 7;
#X floatatom 312 422 7 0 0 0 - - -, f 7;
#X obj 153 546 metro 1000;
#X obj 153 575 i;
#X obj 179 574 + 1;
#X obj 153 626 t f f;
#X obj 153 649 div 2;
#X obj 153 676 pack f f;
#X obj 153 698 s num/side;
#X floatatom 118 678 5 0 0 0 - - -, f 5;
#X floatatom 211 677 5 0 0 0 - - -, f 5;
#X obj 153 527 tgl 15 0 empty empty empty 17 7 0 10 -262144 -1 -1 0
1;
#X obj 191 649 mod 2;
#X obj 92 289 mdemux;
#X obj 177 385 mdemux;
#X obj 308 387 mdemux;
#X obj 179 596 mod 8;
#X floatatom 372 422 7 0 0 0 - - -, f 7;
#X floatatom 423 422 7 0 0 0 - - -, f 7;
#X obj 419 387 mdemux;
#X obj 451 504 nbx 5 14 -1e+37 1e+37 0 0 empty empty empty 0 -8 0 10
-262144 -1 -1 0 256;
#X obj 302 557 pack f f;
#X msg 302 582 \$2 \$1;
#X obj 302 606 s num/side;
#X obj 302 529 tgl 15 0 empty empty empty 17 7 0 10 -262144 -1 -1 0
1;
#X obj 302 474 tgl 15 0 empty empty empty 17 7 0 10 -262144 -1 -1 0
1;
#X obj 291 120 unit 0;
#X obj 347 521 hradio 30 1 0 4 empty empty empty 0 -8 0 10 -262144
-1 -1 1;
#X obj 383 120 unit 1;
#X obj 475 120 unit 2;
#X obj 567 120 unit 3;
#X obj 302 493 metro 1000;
#X msg 380 481 500;
#X msg 382 460 1000;
#X msg 381 501 300;
#X connect 1 0 29 0;
#X connect 3 0 4 0;
#X connect 4 0 5 0;
#X connect 4 1 8 0;
#X connect 5 0 6 0;
#X connect 6 0 9 0;
#X connect 6 1 7 0;
#X connect 7 0 9 1;
#X connect 8 0 7 1;
#X connect 9 0 0 0;
#X connect 10 0 12 0;
#X connect 11 0 2 0;
#X connect 11 1 13 0;
#X connect 12 0 29 1;
#X connect 12 1 11 1;
#X connect 12 1 30 1;
#X connect 12 1 31 1;
#X connect 12 1 35 1;
#X connect 18 0 19 0;
#X connect 19 0 20 0;
#X connect 19 0 21 0;
#X connect 20 0 32 0;
#X connect 21 0 22 0;
#X connect 21 1 28 0;
#X connect 22 0 23 0;
#X connect 22 0 25 0;
#X connect 23 0 24 0;
#X connect 27 0 18 0;
#X connect 28 0 23 1;
#X connect 28 0 26 0;
#X connect 29 0 11 0;
#X connect 29 1 30 0;
#X connect 29 2 31 0;
#X connect 29 3 35 0;
#X connect 30 0 14 0;
#X connect 30 1 15 0;
#X connect 31 0 16 0;
#X connect 31 1 17 0;
#X connect 32 0 19 1;
#X connect 35 0 33 0;
#X connect 35 1 34 0;
#X connect 37 0 38 0;
#X connect 38 0 39 0;
#X connect 40 0 37 0;
#X connect 41 0 47 0;
#X connect 43 0 37 1;
#X connect 47 0 40 0;
#X connect 48 0 47 1;
#X connect 49 0 47 1;
#X connect 50 0 47 1;
#X restore 215 71 pd test-materials-automat;
#X msg 343 542 JP;
#N canvas 132 106 615 401 SELECT 0;
#X obj 26 122 hradio 10 1 0 16 empty empty empty 0 -8 0 10 -262144
-1 -1 2;
#X obj 26 140 hradio 10 1 0 16 empty empty empty 0 -8 0 10 -262144
-1 -1 0;
#X obj 244 32 r SELECT;
#X obj 44 173 t b f;
#X obj 26 232 pack f f;
#X obj 26 207 f;
#X obj 26 253 s SELECT;
#X obj 87 36 unpack f f;
#X obj 87 15 r SELECT;
#X msg 87 74 set \$1;
#X msg 144 74 set \$1;
#X obj 244 332 fruit/send2 fruit1;
#X msg 244 224 c 100 c \$1 c \$2;
#X msg 408 258 c 101 i \$1;
#X msg 408 231 30000;
#X msg 492 231 10000;
#X msg 451 231 19700;
#X text 406 197 select swaping period (us);
#N canvas 7 75 450 300 old-"manual"-swaping 0;
#X obj 181 97 inlet;
#X obj 94 229 outlet;
#X obj 94 76 tgl 15 0 empty empty empty 17 7 0 10 -262144 -1 -1 0 1
;
#X obj 94 161 route 0 1;
#X msg 119 181 \$2 \$1;
#X obj 94 202 t a;
#X obj 94 139 list append 0 1;
#X obj 94 118 i;
#X obj 120 118 == 0;
#X obj 94 97 metro 20;
#X obj 94 53 loadbang;
#X connect 0 0 6 1;
#X connect 2 0 9 0;
#X connect 3 0 5 0;
#X connect 3 1 4 0;
#X connect 4 0 5 0;
#X connect 5 0 1 0;
#X connect 6 0 3 0;
#X connect 7 0 8 0;
#X connect 7 0 6 0;
#X connect 8 0 7 1;
#X connect 9 0 7 0;
#X restore 279 179 pd old-"manual"-swaping;
#X text 406 212 default 20ms;
#X obj 244 54 pack f f;
#X obj 244 76 unpack f f;
#X obj 244 98 clip 0 15;
#X obj 244 120 i;
#X obj 308 99 clip 0 15;
#X obj 308 121 i;
#X obj 244 142 pack f f;
#X msg 507 277 13000;
#X connect 0 0 5 0;
#X connect 1 0 3 0;
#X connect 2 0 20 0;
#X connect 3 0 5 0;
#X connect 3 1 4 1;
#X connect 4 0 6 0;
#X connect 5 0 4 0;
#X connect 7 0 9 0;
#X connect 7 0 5 1;
#X connect 7 1 10 0;
#X connect 7 1 4 1;
#X connect 8 0 7 0;
#X connect 9 0 0 0;
#X connect 10 0 1 0;
#X connect 12 0 11 0;
#X connect 13 0 11 0;
#X connect 14 0 13 0;
#X connect 15 0 13 0;
#X connect 16 0 13 0;
#X connect 20 0 21 0;
#X connect 21 0 22 0;
#X connect 21 1 24 0;
#X connect 22 0 23 0;
#X connect 23 0 26 0;
#X connect 24 0 25 0;
#X connect 25 0 26 1;
#X connect 26 0 12 0;
#X connect 27 0 13 0;
#X coords 0 -1 1 1 170 60 1 20 100;
#X restore 21 250 pd SELECT;
#N canvas 523 98 656 625 MEASURE 0;
#X obj 30 27 analog/parse;
#X floatatom 70 96 8 0 0 0 - - -, f 8;
#X obj 30 7 fruit/receive fruit1;
#X floatatom 118 240 8 0 0 0 - - -, f 8;
#X obj 80 146 mavg 500;
#X obj 40 557 s MEASURE;
#X obj 30 282 * -10;
#X obj 30 260 min 0;
#X obj 65 124 r clearOffset;
#X obj 48 170 bng 15 250 50 0 empty empty empty 17 7 0 10 -262144 -1
-1;
#X floatatom 108 213 8 0 0 0 - - -, f 8;
#X floatatom 104 321 8 0 0 0 - - -, f 8;
#X obj 30 102 t f f;
#X obj 157 320 bng 15 250 50 0 clearOffset empty clearOffset 17 7 0
10 -262144 -1 -1;
#X obj 30 48 route 0 1;
#X floatatom 232 264 5 0 0 1 weigth(g) - WEIGHT--, f 5;
#X obj 180 36 mavg 20;
#X obj 180 59 mavg 20;
#X obj 180 145 * -1;
#X obj 65 189 f;
#X obj 30 236 - 3419;
#X obj 180 209 max 0;
#X obj 274 104 text define -k weightPairs;
#A set 0 0 \; 400 140 \; 1600 723 \; 1790 885 \; 3010 2761 \; 3400
3646 \;;
#X text 438 128 measure grams (ordered);
#X obj 273 218 calibrateInterpol weightPairs weightConv;
#X floatatom 272 143 5 0 0 0 - - -, f 5;
#X floatatom 273 237 5 0 0 0 - - -, f 5;
#X floatatom 273 183 5 0 0 0 - - -, f 5;
#X obj 273 161 * 10;
#X floatatom 203 236 5 0 0 0 - - -, f 5;
#X floatatom 128 85 5 0 0 0 - - -, f 5;
#X obj 331 319 * 10;
#X obj 331 341 s PROGRESS;
#X obj 331 273 spigot;
#X obj 80 167 mavg 500;
#X obj 361 249 tgl 15 0 empty empty empty 17 7 0 10 -262144 -1 -1 0
1;
#X floatatom 210 175 5 0 0 0 - - -, f 5;
#X obj 331 297 / 1500;
#X obj 219 92 f;
#X obj 300 55 bng 15 250 50 0 empty empty empty 17 7 0 10 -262144 -1
-1;
#X floatatom 78 240 5 0 0 0 - - -, f 5;
#X floatatom 230 117 5 0 0 0 - - -, f 5;
#X floatatom 125 62 5 0 0 0 - - -, f 5;
#X obj 232 22 tgl 15 0 empty empty empty 17 7 0 10 -262144 -1 -1 0
1;
#X obj 180 14 f;
#X obj 233 43 metro 10;
#X obj 219 143 - 4570;
#X obj 483 258 r clearWeightOffset;
#X obj 105 361 bng 15 250 50 0 clearWeightOffset empty clearWeightOffset
17 7 0 10 -262144 -1 -1;
#X obj 8 77 * 4;
#X obj 65 73 * 4;
#X obj 180 122 - 5400;
#X obj 431 285 fruit/receive fruit1;
#X obj 431 307 route W;
#X obj 431 329 unpack f f;
#X floatatom 431 351 8 0 0 0 - - -, f 8;
#X floatatom 510 329 8 0 0 0 - - -, f 8;
#X floatatom 349 476 8 0 0 0 - - -, f 8;
#X obj 285 393 - 1.67772e+07;
#X obj 274 422 - 8.38861e+06;
#X floatatom 549 405 8 0 0 0 - - -, f 8;
#X obj 549 378 - 8.38861e+06;
#X obj 549 354 * 1;
#X obj 382 375 * -1;
#X obj 382 397 t f f;
#X obj 407 421 f;
#X obj 382 421 -;
#X obj 424 396 bng 15 250 50 0 empty empty empty 17 7 0 10 -262144
-1 -1;
#X obj 479 377 * -1;
#X obj 479 399 t f f;
#X obj 504 423 f;
#X obj 479 423 -;
#X obj 521 398 bng 15 250 50 0 empty empty empty 17 7 0 10 -262144
-1 -1;
#X floatatom 476 464 8 0 0 0 - - -, f 8;
#X obj 382 443 * 8;
#X obj 421 507 +;
#X floatatom 360 498 8 0 0 0 - - -, f 8;
#X floatatom 486 557 5 0 0 0 - - -, f 5;
#X obj 421 550 * 170;
#X floatatom 105 343 5 0 0 1 weigth(g) - WEIGHT, f 5;
#X obj 487 511 / 76400;
#X obj 421 528 / 60500;
#X msg 550 452 set \$1;
#X msg 550 474 -7.9271e+06;
#X msg 434 421 set \$1;
#X msg 434 443 -8.37099e+06;
#X obj 574 426 loadbang;
#X obj 232 2 r --loadbang;
#X obj 420 570 max 0;
#X obj 370 55 s mes_raw;
#X obj 65 214 - 50;
#X floatatom 106 259 5 0 0 0 - - -, f 5;
#X obj 88 281 mavg 5;
#X obj 30 317 max 0;
#X obj 111 510 nbx 5 40 -1e+37 1e+37 0 0 empty empty empty 0 -8 0 35
-262144 -1 -1 0 256;
#N canvas 1 85 450 300 lop 0;
#X obj 126 101 tgl 15 0 empty empty empty 17 7 0 10 -262144 -1 -1 1
1;
#X obj 126 120 metro 10;
#X obj 126 81 loadbang;
#X obj 126 148 f;
#X obj 126 170 mavg 10;
#X obj 126 193 mavg 11;
#X obj 212 73 inlet;
#X obj 209 246 outlet;
#X connect 0 0 1 0;
#X connect 1 0 3 0;
#X connect 2 0 0 0;
#X connect 3 0 4 0;
#X connect 4 0 5 0;
#X connect 5 0 7 0;
#X connect 6 0 3 1;
#X restore 5 207 pd lop;
#X connect 0 0 14 0;
#X connect 1 0 89 0;
#X connect 2 0 0 0;
#X connect 4 0 34 0;
#X connect 6 0 93 0;
#X connect 7 0 6 0;
#X connect 8 0 19 0;
#X connect 9 0 19 0;
#X connect 12 0 95 0;
#X connect 12 1 4 0;
#X connect 14 0 1 0;
#X connect 14 0 49 0;
#X connect 14 1 42 0;
#X connect 14 1 50 0;
#X connect 16 0 17 0;
#X connect 17 0 30 0;
#X connect 17 0 38 1;
#X connect 17 0 51 0;
#X connect 18 0 21 0;
#X connect 18 0 36 0;
#X connect 19 0 10 0;
#X connect 19 0 90 0;
#X connect 20 0 7 0;
#X connect 21 0 29 0;
#X connect 21 0 24 0;
#X connect 24 0 26 0;
#X connect 24 0 15 0;
#X connect 24 0 33 0;
#X connect 25 0 28 0;
#X connect 27 0 24 0;
#X connect 28 0 27 0;
#X connect 31 0 32 0;
#X connect 33 0 37 0;
#X connect 34 0 3 0;
#X connect 34 0 19 1;
#X connect 35 0 33 1;
#X connect 37 0 31 0;
#X connect 38 0 41 0;
#X connect 38 0 51 1;
#X connect 39 0 38 0;
#X connect 43 0 45 0;
#X connect 44 0 16 0;
#X connect 45 0 44 0;
#X connect 47 0 67 0;
#X connect 47 0 72 0;
#X connect 49 0 12 0;
#X connect 50 0 44 1;
#X connect 51 0 18 0;
#X connect 52 0 53 0;
#X connect 53 0 54 0;
#X connect 54 0 55 0;
#X connect 54 0 63 0;
#X connect 54 1 56 0;
#X connect 54 1 68 0;
#X connect 59 0 57 0;
#X connect 61 0 60 0;
#X connect 62 0 61 0;
#X connect 63 0 64 0;
#X connect 64 0 66 0;
#X connect 64 1 65 1;
#X connect 65 0 66 1;
#X connect 65 0 84 0;
#X connect 66 0 74 0;
#X connect 67 0 65 0;
#X connect 68 0 69 0;
#X connect 69 0 71 0;
#X connect 69 1 70 1;
#X connect 70 0 71 1;
#X connect 70 0 82 0;
#X connect 71 0 73 0;
#X connect 71 0 75 1;
#X connect 72 0 70 0;
#X connect 74 0 57 0;
#X connect 74 0 75 0;
#X connect 75 0 76 0;
#X connect 75 0 81 0;
#X connect 78 0 77 0;
#X connect 78 0 88 0;
#X connect 81 0 78 0;
#X connect 82 0 83 0;
#X connect 83 0 71 1;
#X connect 84 0 85 0;
#X connect 85 0 66 1;
#X connect 86 0 83 0;
#X connect 86 0 85 0;
#X connect 87 0 43 0;
#X connect 88 0 79 0;
#X connect 90 0 20 1;
#X connect 90 0 40 0;
#X connect 93 0 11 0;
#X connect 93 0 94 0;
#X connect 93 0 5 0;
#X connect 95 0 20 0;
#X coords 0 -1 1 1 140 80 1 100 300;
#X restore 21 167 pd MEASURE;
#N canvas 662 81 617 694 Session 0;
#X obj 113 73 r handSession;
#X obj 113 98 symbol;
#X obj 292 93 s handSession;
#X msg 292 42 Jean-Marc;
#X obj 113 123 s handMeasuresStart;
#X obj 143 227 r handMeasuresFinished;
#X obj 202 162 r handSession;
#X obj 143 661 text define Sessions;
#X obj 170 428 until;
#X obj 170 381 t b b;
#X obj 170 451 i;
#X obj 197 452 + 1;
#X msg 207 429 0;
#X obj 170 474 tabread handMeasures;
#X obj 162 587 text set Sessions 1e+06;
#X obj 143 350 t a b;
#X obj 251 498 t a;
#X obj 143 533 list append;
#X msg 236 428 list;
#X obj 170 498 list prepend;
#X obj 202 278 symbol;
#X obj 116 229 bng 15 250 50 0 empty empty empty 17 7 0 10 -262144
-1 -1;
#X msg 362 41 Antoine;
#X msg 418 40 Al1;
#X obj 393 330 *~;
#X obj 421 296 line~;
#X obj 392 352 dac~;
#X obj 421 318 *~;
#X obj 392 272 osc~ 5000;
#X msg 456 273 0.5 \, 0 1000;
#X obj 143 555 t b a b;
#X msg 182 611 read -c Sessions.txt;
#X msg 143 632 write -c Sessions.txt;
#X obj 389 492 *~;
#X obj 417 458 line~;
#X obj 388 514 dac~;
#X obj 417 480 *~;
#X msg 417 412 0.5 \, 0 1000;
#X obj 417 389 r handMeasuresActualStart;
#X obj 388 434 osc~ 250;
#X obj 456 250 r handMeasuresFinished;
#X obj 252 551 loadbang;
#X obj 393 642 *~;
#X obj 421 608 line~;
#X obj 392 664 dac~;
#X obj 421 630 *~;
#X obj 421 539 r SELECT;
#X obj 392 584 osc~ 8000;
#X msg 421 562 0.5 \, 0 100;
#X msg 170 402 35;
#X obj 143 280 horodate;
#X obj 143 306 pack s s;
#X msg 143 328 list \$2 \$1;
#X obj 143 249 spigot;
#X msg 176 206 0;
#X msg 263 206 1;
#X obj 176 184 route anonymous;
#X connect 0 0 1 0;
#X connect 1 0 4 0;
#X connect 3 0 2 0;
#X connect 5 0 53 0;
#X connect 6 0 20 0;
#X connect 6 0 56 0;
#X connect 8 0 10 0;
#X connect 9 0 49 0;
#X connect 9 1 12 0;
#X connect 9 1 18 0;
#X connect 10 0 11 0;
#X connect 10 0 13 0;
#X connect 11 0 10 1;
#X connect 12 0 10 1;
#X connect 13 0 19 0;
#X connect 15 0 17 0;
#X connect 15 1 9 0;
#X connect 16 0 19 1;
#X connect 17 0 30 0;
#X connect 18 0 16 0;
#X connect 19 0 16 0;
#X connect 19 0 17 1;
#X connect 20 0 51 1;
#X connect 22 0 2 0;
#X connect 23 0 2 0;
#X connect 24 0 26 0;
#X connect 24 0 26 1;
#X connect 25 0 27 0;
#X connect 25 0 27 1;
#X connect 27 0 24 1;
#X connect 28 0 24 0;
#X connect 29 0 25 0;
#X connect 30 0 32 0;
#X connect 30 1 14 0;
#X connect 30 2 31 0;
#X connect 31 0 7 0;
#X connect 32 0 7 0;
#X connect 33 0 35 0;
#X connect 33 0 35 1;
#X connect 34 0 36 0;
#X connect 34 0 36 1;
#X connect 36 0 33 1;
#X connect 37 0 34 0;
#X connect 38 0 37 0;
#X connect 39 0 33 0;
#X connect 40 0 29 0;
#X connect 41 0 31 0;
#X connect 42 0 44 0;
#X connect 42 0 44 1;
#X connect 43 0 45 0;
#X connect 43 0 45 1;
#X connect 45 0 42 1;
#X connect 46 0 48 0;
#X connect 47 0 42 0;
#X connect 48 0 43 0;
#X connect 49 0 8 0;
#X connect 50 0 51 0;
#X connect 51 0 52 0;
#X connect 52 0 15 0;
#X connect 53 0 50 0;
#X connect 54 0 53 1;
#X connect 55 0 53 1;
#X connect 56 0 54 0;
#X connect 56 1 55 0;
#X restore 20 569 pd Session;
#N canvas 328 81 951 694 handMeasuresSeq 0;
#X obj 108 108 i;
#X obj 185 120 + 1;
#X obj 108 275 sel 0 1 2 3 4 5 6 7 8 9 10 11 12 13 14;
#X msg 35 340 3 1;
#X msg 63 340 3 2;
#X msg 90 340 3 4;
#X msg 118 340 3 5;
#X msg 145 339 3 6;
#X msg 173 339 3 7;
#X msg 200 339 3 8;
#X msg 228 339 3 9;
#X msg 257 338 10 11;
#X msg 296 339 10 12;
#X msg 337 338 10 13;
#X msg 376 339 10 14;
#X msg 415 339 10 15;
#X msg 454 340 10 16;
#X msg 495 341 3 10;
#X obj 513 112 r MEASURE;
#X floatatom 513 167 8 0 0 0 - - -, f 8;
#X obj 85 206 hradio 15 1 0 14 handMeasuresNum handMeasuresNum empty
0 -8 0 10 -262144 -1 -1 0;
#X obj 577 153 t b b;
#X obj 577 177 timer;
#X floatatom 580 209 5 0 0 0 - - -, f 5;
#X obj 593 302 table handMeasures;
#X obj 436 150 f;
#X obj 108 158 t f b f;
#X obj 436 205 pack f f;
#X obj 436 249 tabwrite handMeasures;
#X obj 436 227 unpack f f;
#X obj 46 41 bng 15 250 50 0 empty empty sansLaMain-mettreMainAvant3secondes
17 7 0 10 -262144 -1 -1;
#X obj 46 114 bng 15 250 50 0 empty empty empty 17 7 0 10 -262144 -1
-1;
#X msg 46 135 0;
#X obj 271 61 s clearOffset;
#X obj 592 331 table handMeasuresNorm;
#X obj 806 95 until;
#X obj 806 48 t b b;
#X obj 806 118 i;
#X obj 833 119 + 1;
#X msg 843 96 0;
#X obj 806 140 tabread handMeasures;
#X obj 806 162 max;
#X obj 779 25 t b b;
#X obj 779 183 f;
#X obj 779 205 t b f;
#X obj 779 274 until;
#X obj 779 227 t b b;
#X obj 779 297 i;
#X obj 806 298 + 1;
#X msg 819 274 0;
#X obj 779 342 tabread handMeasures;
#X obj 779 364 /;
#X obj 779 320 t f f;
#X obj 779 387 tabwrite handMeasuresNorm;
#X obj 743 14 bng 15 250 50 0 empty empty empty 17 7 0 10 -262144 -1
-1;
#X obj 806 184 f;
#X obj 718 46 del 10;
#X obj 717 437 s handMeasuresFinished;
#X obj 46 15 r handMeasuresStart;
#X obj 245 89 bng 15 250 50 0 empty empty empty 17 7 0 10 -262144 -1
-1;
#X obj 249 477 s SELECT;
#X obj 249 455 pack f f;
#X obj 249 412 unpack f f;
#X obj 249 434 - 1;
#X obj 306 432 - 1;
#X obj 65 247 r handMeasuresNum;
#X obj 108 183 s handMeasuresNum;
#X obj 85 206 hradio 15 1 0 14 handMeasuresNum handMeasuresNum empty
0 -8 0 10 -262144 -1 -1 0;
#X obj 9 414 s handMeasuresActualStart;
#X msg 479 90 200;
#X msg 156 60 14;
#X obj 570 384 r MEASURE;
#X obj 570 450 > 500;
#X obj 570 472 change;
#X obj 570 494 sel 1 0;
#X obj 570 535 del 1000;
#X msg 589 514 stop;
#X obj 570 406 spigot;
#X msg 632 475 0;
#X msg 641 385 1;
#X msg 641 407 set 0;
#X obj 46 90 del 1000;
#X msg 20 582 1 4;
#X msg 48 582 4 7;
#X msg 77 582 7 11;
#X msg 109 582 11 14;
#X msg 161 580 2 5;
#X msg 187 580 5 8;
#X msg 216 580 8 12;
#X msg 248 580 12 15;
#X msg 291 580 6 9;
#X msg 317 580 9 13;
#X msg 346 580 13 16;
#X obj 85 532 sel 15 16 17 18 19 20 21 22 23 24 25;
#X obj 179 647 t a;
#X obj 536 686 t a;
#X msg 385 620 1 2;
#X msg 413 620 4 5;
#X msg 442 620 7 8;
#X msg 471 620 11 12;
#X msg 510 620 14 15;
#X msg 560 619 5 6;
#X msg 589 619 8 9;
#X msg 621 619 12 13;
#X msg 664 619 15 16;
#X obj 442 571 sel 26 27 28 29 30 31 32 33 34;
#X obj 108 130 moses 35;
#X msg 806 69 35;
#X msg 779 248 35;
#X obj 646 156 s handMeasuresNum;
#X msg 646 132 0;
#X msg 441 95 100;
#X obj 436 120 del 200;
#X obj 40 755 s handMeasuresNum;
#X obj 39 687 f;
#X obj 39 709 + 1;
#X obj 24 619 tgl 15 0 empty empty empty 17 7 0 10 -262144 -1 -1 0
1;
#X obj 34 660 metro 500;
#X obj 39 731 mod 35;
#X obj 123 698 * 10;
#X obj 123 720 s PROGRESS;
#X obj 123 676 / 35;
#N canvas 272 124 635 526 final 0;
#X obj 318 395 s SELECT;
#X obj 318 330 t a;
#X msg 55 254 4 7;
#X msg 83 256 1 6;
#X msg 110 256 11 14;
#X msg 155 255 7 11;
#X msg 189 255 0 3;
#X msg 217 255 5 8;
#X msg 246 255 6 14;
#X msg 285 255 6 7;
#X msg 326 256 2 9;
#X msg 365 257 5 12;
#X msg 406 256 6 10;
#X msg 445 257 3 6;
#X msg 484 257 8 15;
#X msg 523 258 6 4;
#X msg 551 258 7 14;
#X obj 186 160 sel 0 1 2 3 4 5 6 7 8 9 10 11 12 13 14 15 16 17 18 19
20 21;
#X connect 1 0 0 0;
#X connect 2 0 1 0;
#X connect 3 0 1 0;
#X connect 4 0 1 0;
#X connect 5 0 1 0;
#X connect 6 0 1 0;
#X connect 7 0 1 0;
#X connect 8 0 1 0;
#X connect 9 0 1 0;
#X connect 10 0 1 0;
#X connect 11 0 1 0;
#X connect 12 0 1 0;
#X connect 13 0 1 0;
#X connect 14 0 1 0;
#X connect 15 0 1 0;
#X connect 16 0 1 0;
#X connect 17 0 2 0;
#X connect 17 1 3 0;
#X connect 17 2 4 0;
#X connect 17 3 5 0;
#X connect 17 4 6 0;
#X connect 17 5 7 0;
#X connect 17 6 8 0;
#X connect 17 7 9 0;
#X connect 17 8 10 0;
#X connect 17 9 11 0;
#X connect 17 10 12 0;
#X connect 17 11 13 0;
#X connect 17 12 14 0;
#X connect 17 13 15 0;
#X connect 17 14 16 0;
#X restore 755 519 pd final;
#X connect 0 0 106 0;
#X connect 1 0 0 1;
#X connect 2 0 3 0;
#X connect 2 1 4 0;
#X connect 2 2 5 0;
#X connect 2 3 6 0;
#X connect 2 4 7 0;
#X connect 2 5 8 0;
#X connect 2 6 9 0;
#X connect 2 7 10 0;
#X connect 2 8 11 0;
#X connect 2 9 12 0;
#X connect 2 10 13 0;
#X connect 2 11 14 0;
#X connect 2 12 15 0;
#X connect 2 13 16 0;
#X connect 2 14 17 0;
#X connect 2 15 93 0;
#X connect 3 0 62 0;
#X connect 4 0 62 0;
#X connect 5 0 62 0;
#X connect 6 0 62 0;
#X connect 7 0 62 0;
#X connect 8 0 62 0;
#X connect 9 0 62 0;
#X connect 10 0 62 0;
#X connect 11 0 62 0;
#X connect 12 0 62 0;
#X connect 13 0 62 0;
#X connect 14 0 62 0;
#X connect 15 0 62 0;
#X connect 16 0 62 0;
#X connect 17 0 62 0;
#X connect 18 0 19 0;
#X connect 18 0 25 1;
#X connect 21 0 22 0;
#X connect 21 1 22 1;
#X connect 22 0 23 0;
#X connect 25 0 27 0;
#X connect 26 0 66 0;
#X connect 26 1 112 0;
#X connect 26 2 1 0;
#X connect 26 2 27 1;
#X connect 27 0 29 0;
#X connect 29 0 28 0;
#X connect 29 1 28 1;
#X connect 30 0 70 0;
#X connect 30 0 79 0;
#X connect 31 0 32 0;
#X connect 31 0 68 0;
#X connect 32 0 0 0;
#X connect 35 0 37 0;
#X connect 36 0 107 0;
#X connect 36 1 39 0;
#X connect 37 0 38 0;
#X connect 37 0 40 0;
#X connect 38 0 37 1;
#X connect 39 0 37 1;
#X connect 39 0 41 1;
#X connect 40 0 41 0;
#X connect 41 0 43 1;
#X connect 41 0 55 0;
#X connect 42 0 43 0;
#X connect 42 1 36 0;
#X connect 43 0 44 0;
#X connect 44 0 46 0;
#X connect 44 1 51 1;
#X connect 45 0 47 0;
#X connect 46 0 108 0;
#X connect 46 1 49 0;
#X connect 47 0 48 0;
#X connect 47 0 52 0;
#X connect 48 0 47 1;
#X connect 49 0 47 1;
#X connect 50 0 51 0;
#X connect 51 0 53 0;
#X connect 52 0 50 0;
#X connect 52 1 53 1;
#X connect 54 0 56 0;
#X connect 55 0 41 1;
#X connect 56 0 57 0;
#X connect 56 0 110 0;
#X connect 58 0 30 0;
#X connect 59 0 33 0;
#X connect 61 0 60 0;
#X connect 62 0 63 0;
#X connect 62 1 64 0;
#X connect 63 0 61 0;
#X connect 64 0 61 1;
#X connect 65 0 2 0;
#X connect 69 0 112 1;
#X connect 70 0 66 0;
#X connect 71 0 77 0;
#X connect 72 0 73 0;
#X connect 73 0 74 0;
#X connect 74 0 75 0;
#X connect 74 1 76 0;
#X connect 75 0 78 0;
#X connect 75 0 81 0;
#X connect 76 0 75 0;
#X connect 77 0 72 0;
#X connect 78 0 77 1;
#X connect 79 0 80 0;
#X connect 79 0 77 1;
#X connect 80 0 73 0;
#X connect 81 0 31 0;
#X connect 82 0 94 0;
#X connect 83 0 94 0;
#X connect 84 0 94 0;
#X connect 85 0 94 0;
#X connect 86 0 94 0;
#X connect 87 0 94 0;
#X connect 88 0 94 0;
#X connect 89 0 94 0;
#X connect 90 0 94 0;
#X connect 91 0 94 0;
#X connect 92 0 94 0;
#X connect 93 0 82 0;
#X connect 93 1 83 0;
#X connect 93 2 84 0;
#X connect 93 3 85 0;
#X connect 93 4 86 0;
#X connect 93 5 87 0;
#X connect 93 6 88 0;
#X connect 93 7 89 0;
#X connect 93 8 90 0;
#X connect 93 9 91 0;
#X connect 93 10 92 0;
#X connect 93 11 105 0;
#X connect 94 0 62 0;
#X connect 95 0 62 0;
#X connect 96 0 95 0;
#X connect 97 0 95 0;
#X connect 98 0 95 0;
#X connect 99 0 95 0;
#X connect 100 0 95 0;
#X connect 101 0 95 0;
#X connect 102 0 95 0;
#X connect 103 0 95 0;
#X connect 104 0 95 0;
#X connect 105 0 96 0;
#X connect 105 1 97 0;
#X connect 105 2 98 0;
#X connect 105 3 99 0;
#X connect 105 4 100 0;
#X connect 105 5 101 0;
#X connect 105 6 102 0;
#X connect 105 7 103 0;
#X connect 105 8 104 0;
#X connect 106 0 26 0;
#X connect 106 1 54 0;
#X connect 107 0 35 0;
#X connect 108 0 45 0;
#X connect 110 0 109 0;
#X connect 111 0 112 1;
#X connect 112 0 25 0;
#X connect 112 0 0 0;
#X connect 114 0 115 0;
#X connect 115 0 118 0;
#X connect 116 0 117 0;
#X connect 117 0 114 0;
#X connect 118 0 114 1;
#X connect 118 0 113 0;
#X connect 119 0 120 0;
#X connect 121 0 119 0;
#X restore 20 546 pd handMeasuresSeq;
#X msg 378 545 Veronique;
#N canvas 4 75 450 300 audio 0;
#X obj 93 54 r MEASURE;
#X obj 93 179 osc~;
#X obj 93 242 dac~;
#X obj 94 208 *~ 0.02;
#X obj 93 102 lop~ 50;
#X obj 178 247 * 0.02;
#X obj 308 129 tgl 15 0 empty empty on 17 7 0 10 -262144 -1 -1 0 1
;
#X obj 203 223 t b f;
#X obj 206 180 hsl 128 15 0 1 0 1 empty empty vol -2 -8 0 10 -258113
-1 -1 3100 1;
#X obj 203 200 pow 2;
#X obj 206 151 hsl 128 15 0 1 0 0 empty empty freq -2 -8 0 10 -4034
-1 -1 12700 1;
#X obj 93 124 *~;
#X obj 199 44 loadbang;
#X msg 200 71 1;
#X connect 0 0 4 0;
#X connect 1 0 3 0;
#X connect 3 0 2 0;
#X connect 3 0 2 1;
#X connect 4 0 11 0;
#X connect 5 0 3 1;
#X connect 6 0 5 0;
#X connect 7 0 5 0;
#X connect 7 1 5 1;
#X connect 8 0 9 0;
#X connect 9 0 7 0;
#X connect 10 0 11 1;
#X connect 11 0 1 0;
#X connect 12 0 13 0;
#X connect 13 0 10 0;
#X coords 0 -1 1 1 140 100 1 200 100;
#X restore 324 297 pd audio;
#X msg 182 622 Jean-Marc;
#X msg 252 621 Antoine;
#X msg 308 620 Al1;
#X msg 344 619 JP;
#X msg 379 622 Veronique;
#N canvas 391 91 1004 765 Graphe 0;
#N canvas 0 50 450 250 (subpatch) 0;
#X array grapheTab 1000 float 4;
#X coords 0 1 1000 0 200 140 1 0 0;
#X restore 101 33 graph;
#X obj 355 244 r MEASURE;
#X obj 340 266 f;
#X obj 391 266 i;
#X obj 418 266 + 1;
#X obj 446 266 moses 1000;
#X msg 503 288 0;
#X msg 340 176 1;
#X obj 340 155 t b b;
#X msg 374 175 0;
#X obj 340 220 t b b;
#X obj 340 291 tabwrite grapheTab;
#X obj 340 104 bng 15 250 50 0 empty empty empty 17 7 0 10 -262144
-1 -1;
#X obj 552 204 sel 0;
#X obj 612 336 *~;
#X obj 640 302 line~;
#X obj 611 358 dac~;
#X obj 640 324 *~;
#X msg 640 256 0.5 \, 0 100;
#X obj 611 278 osc~ 800;
#X obj 628 161 *~;
#X obj 656 127 line~;
#X obj 627 183 dac~;
#X obj 656 149 *~;
#X obj 340 124 del 2000;
#X obj 416 135 s handMeasuresNum;
#X msg 416 113 7;
#X floatatom 436 199 5 0 0 0 - - -, f 5;
#X obj 552 182 % 10;
#X obj 340 198 metro 25;
#X obj 505 373 s grapheTab;
#X msg 505 348 normalize;
#N canvas 0 50 450 250 (subpatch) 0;
#X array grapheDiffTab 1000 float 4;
#X coords 0 1 1000 -1 200 140 1 0 0;
#X restore 100 198 graph;
#X obj 353 439 i;
#X obj 380 439 + 1;
#X obj 353 487 tabread grapheTab;
#X obj 355 661 tabwrite grapheDiffTab;
#X obj 470 486 tabread grapheTab;
#X msg 397 385 0;
#X obj 353 552 t f f;
#X obj 355 600 -;
#X obj 353 366 t b b;
#X obj 353 461 t f f;
#X obj 326 322 bng 15 250 50 0 empty empty empty 17 7 0 10 -262144
-1 -1;
#X msg 326 685 normalize;
#X obj 326 713 s grapheDiffTab;
#X obj 326 344 t b b;
#X obj 353 411 until;
#X floatatom 212 506 5 0 0 0 - - -, f 5;
#X obj 494 732 print;
#X msg 353 389 999;
#X floatatom 581 523 5 0 0 0 - - -, f 5;
#X obj 353 531 +;
#X obj 353 509 * 0.04;
#X obj 385 530 * 0.96;
#X obj 355 622 * 100;
#X obj 462 334 del 1;
#X obj 478 311 t b b;
#X obj 165 591 s grapheFinished;
#X obj 340 77 r grapheStart;
#X obj 627 103 osc~ 300;
#X msg 656 64 0.5 \, 0 200;
#X msg 671 84 0.25;
#X msg 670 277 0.25;
#X connect 1 0 2 1;
#X connect 2 0 11 0;
#X connect 3 0 4 0;
#X connect 3 0 11 1;
#X connect 3 0 27 0;
#X connect 3 0 28 0;
#X connect 4 0 5 0;
#X connect 5 0 3 1;
#X connect 5 1 6 0;
#X connect 6 0 29 0;
#X connect 6 0 57 0;
#X connect 7 0 29 0;
#X connect 8 0 7 0;
#X connect 8 1 9 0;
#X connect 9 0 3 1;
#X connect 10 0 2 0;
#X connect 10 1 3 0;
#X connect 12 0 24 0;
#X connect 12 0 26 0;
#X connect 13 0 18 0;
#X connect 14 0 16 0;
#X connect 14 0 16 1;
#X connect 15 0 17 0;
#X connect 15 0 17 1;
#X connect 17 0 14 1;
#X connect 18 0 15 0;
#X connect 18 0 63 0;
#X connect 19 0 14 0;
#X connect 20 0 22 0;
#X connect 20 0 22 1;
#X connect 21 0 23 0;
#X connect 21 0 23 1;
#X connect 23 0 20 1;
#X connect 24 0 8 0;
#X connect 26 0 25 0;
#X connect 28 0 13 0;
#X connect 29 0 10 0;
#X connect 31 0 30 0;
#X connect 33 0 34 0;
#X connect 33 0 42 0;
#X connect 34 0 33 1;
#X connect 35 0 53 0;
#X connect 37 0 40 1;
#X connect 37 0 54 0;
#X connect 38 0 37 0;
#X connect 38 0 33 1;
#X connect 39 0 40 1;
#X connect 39 1 40 0;
#X connect 40 0 49 0;
#X connect 40 0 55 0;
#X connect 41 0 50 0;
#X connect 41 1 38 0;
#X connect 42 0 35 0;
#X connect 42 1 36 1;
#X connect 42 1 49 0;
#X connect 43 0 46 0;
#X connect 46 0 44 0;
#X connect 46 1 41 0;
#X connect 47 0 33 0;
#X connect 50 0 47 0;
#X connect 51 0 36 0;
#X connect 52 0 39 0;
#X connect 52 0 54 0;
#X connect 53 0 52 0;
#X connect 54 0 52 1;
#X connect 55 0 36 0;
#X connect 57 0 56 0;
#X connect 57 0 58 0;
#X connect 59 0 12 0;
#X connect 60 0 20 0;
#X connect 61 0 21 0;
#X connect 61 0 62 0;
#X connect 62 0 60 1;
#X connect 63 0 19 1;
#X restore 20 611 pd Graphe;
#N canvas 783 280 617 333 grapheSession 0;
#X obj 98 94 symbol;
#X msg 292 42 Jean-Marc;
#X obj 164 192 symbol;
#X msg 362 41 Antoine;
#X msg 418 40 Al1;
#X obj 299 222 *~;
#X obj 327 188 line~;
#X obj 298 244 dac~;
#X obj 327 210 *~;
#X msg 362 165 0.5 \, 0 1000;
#X obj 98 69 r grapheSession;
#X obj 292 93 s grapheSession;
#X obj 164 170 r grapheSession;
#X msg 364 187 0.25;
#X obj 298 164 osc~ 4000;
#X obj 98 119 s grapheStart;
#X obj 362 142 r grapheFinished;
#X obj 73 138 bng 15 250 50 0 empty empty empty 17 7 0 10 -262144 -1
-1;
#X obj 100 146 r grapheFinished;
#X obj 100 170 horodate;
#X obj 100 192 pack s s;
#X msg 100 221 write graphs/\$2+\$1;
#X msg 214 192 Antoine;
#X obj 100 243 s grapheTab;
#X connect 0 0 15 0;
#X connect 1 0 11 0;
#X connect 2 0 20 1;
#X connect 3 0 11 0;
#X connect 4 0 11 0;
#X connect 5 0 7 0;
#X connect 5 0 7 1;
#X connect 6 0 8 0;
#X connect 6 0 8 1;
#X connect 8 0 5 1;
#X connect 9 0 6 0;
#X connect 9 0 13 0;
#X connect 10 0 0 0;
#X connect 12 0 2 0;
#X connect 13 0 14 1;
#X connect 14 0 5 0;
#X connect 16 0 9 0;
#X connect 18 0 19 0;
#X connect 19 0 20 0;
#X connect 20 0 21 0;
#X connect 21 0 23 0;
#X connect 22 0 2 0;
#X restore 20 631 pd grapheSession;
#X obj 182 673 s grapheSession;
#N canvas 121 94 590 762 visuGraphe 0;
#N canvas 5 75 450 300 listGraph 0;
#X msg 67 123 1 \, 2 \, 3 \, 4 \, 5 \, 6 \, 7 \, 8;
#X obj 67 146 t f f;
#X obj 94 168 - 1;
#X obj 94 190 + 0;
#X obj 67 98 t b f;
#X obj 67 76 unpack f s;
#X obj 67 225 pack f s f;
#X msg 67 56 list \$2 \$1;
#X obj 67 33 list;
#X obj 67 251 s showGraphe;
#X obj 67 9 inlet;
#X connect 0 0 1 0;
#X connect 1 0 6 0;
#X connect 1 1 2 0;
#X connect 2 0 3 0;
#X connect 3 0 6 2;
#X connect 4 0 0 0;
#X connect 4 1 3 1;
#X connect 5 0 4 0;
#X connect 5 1 6 1;
#X connect 6 0 9 0;
#X connect 7 0 5 0;
#X connect 8 0 7 0;
#X connect 10 0 8 0;
#X restore 300 135 pd listGraph;
#X msg 300 97 Antoine \$1;
#X floatatom 283 69 5 0 0 0 - - -, f 5;
#X obj 286 28 hsl 145 15 0 14.9 0 0 empty empty empty -2 -8 0 10 -257985
-1 -1 0 1;
#X obj 283 48 i;
#X obj 300 191 hsl 128 15 0.1 1 0 0 grapheLowpass grapheLowpass grapheLowpass
-2 -8 0 10 -262144 -1 -1 0 1;
#X obj 39 28 showGraphe 1;
#X floatatom 436 68 5 0 0 0 - - -, f 5;
#X obj 439 27 hsl 145 15 0 14.9 0 0 empty empty empty -2 -8 0 10 -257985
-1 -1 0 1;
#X obj 436 47 i;
#X msg 386 98 Guillaume \$1;
#X msg 476 103 Veronique \$1;
#X obj 39 526 showGraphe 4;
#X obj 39 193 showGraphe 2;
#X obj 39 358 showGraphe 3;
#X msg 501 161 Peggy 0;
#X msg 481 224 Al1 0;
#X msg 486 270 Jean-Marc 0;
#X connect 1 0 0 0;
#X connect 2 0 1 0;
#X connect 3 0 4 0;
#X connect 4 0 2 0;
#X connect 7 0 10 0;
#X connect 8 0 9 0;
#X connect 9 0 7 0;
#X connect 10 0 0 0;
#X connect 11 0 0 0;
#X connect 15 0 0 0;
#X connect 16 0 0 0;
#X connect 17 0 0 0;
#X restore 20 650 pd visuGraphe;
#X msg 378 570 Guillaume;
#X msg 383 642 Guillaume;
#X msg 317 509 AlainTerlutte;
#X msg 384 468 Aymeric;
#X msg 160 524 Valérie;
#X msg 341 458 Martin;
#X msg 335 427 Peggy;
#X msg 137 625 Peggy;
#X msg 102 640 Al1;
#N canvas 390 81 768 694 Network 0;
#X obj 48 290 bng 15 250 50 0 clearOffset empty clearOffset 17 7 0
10 -262144 -1 -1;
#X obj 289 143 > 0;
#X obj 190 99 spigot;
#X obj 190 29 r toNetwork;
#X obj 190 147 s fromNetwork;
#X obj 48 194 r fromNetwork;
#X obj 103 251 s SELECT;
#X obj 196 289 r MEASURE;
#X obj 181 313 f;
#X msg 181 335 m \$1;
#X obj 181 357 s toNetwork;
#X obj 190 51 list prepend send;
#X obj 190 73 list trim;
#X obj 258 310 f;
#X obj 258 354 s toNetwork;
#X obj 273 286 r WEIGHT;
#X msg 258 332 w \$1;
#X obj 181 261 b;
#X obj 258 258 b;
#X obj 337 286 s handSession;
#X msg 337 262 anonymous;
#X obj 49 397 r handMeasuresFinished;
#X obj 76 508 until;
#X obj 76 461 t b b;
#X obj 76 531 i;
#X obj 103 532 + 1;
#X msg 113 509 0;
#X obj 76 554 tabread handMeasures;
#X obj 157 578 t a;
#X msg 142 508 list;
#X obj 76 578 list prepend;
#X msg 76 482 35;
#X obj 49 439 t b b;
#X obj 49 602 list;
#X obj 49 419 bng 15 250 50 0 empty empty empty 17 7 0 10 -262144 -1
-1;
#X obj 49 627 list prepend hc;
#X obj 49 649 s toNetwork;
#X obj 404 251 s LIGHT;
#X obj 498 250 s LEDS;
#X obj 317 33 r NETWORK_PORT;
#X msg 317 55 listen \$1;
#X obj 190 123 netreceive 45451;
#X obj 48 221 route clearOffset select getMesure getWeight handCapture
;
#X obj 545 252 s PROGRESS;
#X obj 404 221 route light light2 leds progress;
#X obj 451 270 s LIGHT2;
#X msg 566 282 set \$1;
#X obj 566 304 s progress-rcv;
#X obj 616 223 route clearWeightOffset;
#X obj 616 252 bng 15 250 50 0 clearWeightOffset empty clearWeightOffset
17 7 0 10 -262144 -1 -1;
#X floatatom 426 541 5 0 0 0 - - -, f 5;
#X obj 364 393 list prepend;
#X obj 435 354 r SELECT;
#X msg 373 362 0;
#X msg 434 324 1 2;
#X obj 364 437 ggee/shell;
#X obj 265 410 r mes_raw;
#X obj 235 480 pack f f;
#X msg 364 415 echo \$1 \$2 \$3 \$4 >> /tmp/awablog.txt;
#X connect 1 0 2 1;
#X connect 2 0 41 0;
#X connect 3 0 11 0;
#X connect 5 0 42 0;
#X connect 7 0 8 1;
#X connect 8 0 9 0;
#X connect 8 0 57 0;
#X connect 9 0 10 0;
#X connect 11 0 12 0;
#X connect 12 0 2 0;
#X connect 13 0 16 0;
#X connect 15 0 13 1;
#X connect 16 0 14 0;
#X connect 17 0 8 0;
#X connect 18 0 13 0;
#X connect 20 0 19 0;
#X connect 21 0 34 0;
#X connect 22 0 24 0;
#X connect 23 0 31 0;
#X connect 23 1 26 0;
#X connect 23 1 29 0;
#X connect 24 0 25 0;
#X connect 24 0 27 0;
#X connect 25 0 24 1;
#X connect 26 0 24 1;
#X connect 27 0 30 0;
#X connect 28 0 30 1;
#X connect 29 0 28 0;
#X connect 30 0 28 0;
#X connect 30 0 33 1;
#X connect 31 0 22 0;
#X connect 32 0 33 0;
#X connect 32 1 23 0;
#X connect 33 0 35 0;
#X connect 34 0 32 0;
#X connect 35 0 36 0;
#X connect 39 0 40 0;
#X connect 40 0 41 0;
#X connect 41 0 4 0;
#X connect 41 1 1 0;
#X connect 42 0 0 0;
#X connect 42 1 6 0;
#X connect 42 2 17 0;
#X connect 42 3 18 0;
#X connect 42 4 20 0;
#X connect 42 5 44 0;
#X connect 44 0 37 0;
#X connect 44 1 45 0;
#X connect 44 2 38 0;
#X connect 44 3 43 0;
#X connect 44 3 46 0;
#X connect 44 4 48 0;
#X connect 46 0 47 0;
#X connect 48 0 49 0;
#X connect 51 0 58 0;
#X connect 52 0 51 1;
#X connect 53 0 51 0;
#X connect 54 0 51 1;
#X connect 56 0 57 1;
#X connect 57 0 51 0;
#X connect 58 0 55 0;
#X restore 20 680 pd Network;
#X obj 249 242 hradio 20 1 0 11 empty progress-rcv PROGRESS 0 -8 0
10 -262144 -1 -1 0;
#X obj 249 268 s PROGRESS;
#X obj 195 115 fruit/fruit 1 fruit2 11 ledbar;
#X obj 413 123 f;
#X obj 413 145 + 1;
#X obj 413 167 mod 11;
#X obj 398 55 tgl 15 0 empty empty empty 17 7 0 10 -262144 -1 -1 0
1;
#X obj 408 96 metro 500;
#X msg 358 677;
#X msg 404 495 anonymous;
#N canvas 489 471 878 350 LEDS-LIGHTS 0;
#X obj 130 204 tgl 15 0 empty empty empty 17 7 0 10 -262144 -1 -1 0
1;
#X obj 96 231 pack f f;
#X obj 153 203 t b f;
#X obj 153 183 tgl 15 0 empty empty empty 17 7 0 10 -262144 -1 -1 0
1;
#X msg 96 274 c 10 c \$1 c \$2;
#X msg 219 281 c 20 i \$1;
#X obj 222 257 hsl 128 15 0 1023 0 0 empty empty empty -2 -8 0 10 -262144
-1 -1 0 1;
#X obj 222 178 hsl 128 15 0 1 0 0 empty empty empty -2 -8 0 10 -262144
-1 -1 0 1;
#X obj 219 198 pow 3;
#X obj 219 220 * 1023;
#X obj 96 165 r LEDS;
#X obj 219 26 r LIGHT;
#X obj 219 110 clip 0 1;
#X obj 219 154 line;
#X obj 551 137 r PROGRESS;
#X obj 219 81 unpack f f;
#X obj 219 132 pack f f;
#X obj 276 110 clip 0 10000;
#X msg 551 237 c 1 c \$1;
#X obj 106 121 hsl 80 15 0 1 0 0 empty empty empty -2 -8 0 10 -262144
-1 -1 0 1;
#X obj 66 65 hsl 128 15 0 1 0 0 empty empty empty -2 -8 0 10 -262144
-1 -1 0 1;
#X obj 219 48 t a b;
#X msg 287 82 0;
#X obj 82 86 s LIGHT;
#X obj 380 257 hsl 128 15 0 1023 0 0 empty empty empty -2 -8 0 10 -262144
-1 -1 0 1;
#X obj 380 178 hsl 128 15 0 1 0 0 empty empty empty -2 -8 0 10 -262144
-1 -1 0 1;
#X obj 377 198 pow 3;
#X obj 377 220 * 1023;
#X obj 377 110 clip 0 1;
#X obj 377 154 line;
#X obj 377 81 unpack f f;
#X obj 377 132 pack f f;
#X obj 434 110 clip 0 10000;
#X obj 377 48 t a b;
#X msg 445 82 0;
#X obj 377 26 r LIGHT2;
#X msg 377 280 c 21 i \$1;
#X obj 105 141 hsl 80 15 0 1 0 0 empty empty empty -2 -8 0 10 -262144
-1 -1 0 1;
#X obj 501 67 hsl 128 15 0 1 0 0 empty empty empty -2 -8 0 10 -262144
-1 -1 0 1;
#X obj 517 88 s LIGHT2;
#X msg 498 41 \$1 200;
#X text 656 56 ruban led : 5m = 1.7A;
#X text 708 81 20cm = 70mA;
#X text 708 70 1.5m = 500mA;
#X msg 63 39 \$1 200;
#X obj 96 312 fruit/send2 fruit1;
#X obj 551 275 fruit/send2 fruit2;
#X connect 0 0 1 0;
#X connect 1 0 4 0;
#X connect 2 0 1 0;
#X connect 2 1 1 1;
#X connect 3 0 2 0;
#X connect 4 0 45 0;
#X connect 5 0 45 0;
#X connect 6 0 5 0;
#X connect 7 0 8 0;
#X connect 8 0 9 0;
#X connect 9 0 6 0;
#X connect 10 0 1 0;
#X connect 11 0 21 0;
#X connect 12 0 16 0;
#X connect 13 0 7 0;
#X connect 14 0 18 0;
#X connect 15 0 12 0;
#X connect 15 1 17 0;
#X connect 16 0 13 0;
#X connect 17 0 16 1;
#X connect 18 0 46 0;
#X connect 19 0 44 0;
#X connect 20 0 23 0;
#X connect 21 0 15 0;
#X connect 21 1 22 0;
#X connect 22 0 17 0;
#X connect 24 0 36 0;
#X connect 25 0 26 0;
#X connect 26 0 27 0;
#X connect 27 0 24 0;
#X connect 28 0 31 0;
#X connect 29 0 25 0;
#X connect 30 0 28 0;
#X connect 30 1 32 0;
#X connect 31 0 29 0;
#X connect 32 0 31 1;
#X connect 33 0 30 0;
#X connect 33 1 34 0;
#X connect 34 0 32 0;
#X connect 35 0 33 0;
#X connect 36 0 45 0;
#X connect 37 0 40 0;
#X connect 38 0 39 0;
#X connect 40 0 39 0;
#X connect 44 0 23 0;
#X coords 0 -1 1 1 90 60 1 100 100;
#X restore 168 166 pd LEDS-LIGHTS;
#X msg 335 595 Olivier;
#X connect 6 0 5 0;
#X connect 7 0 5 0;
#X connect 8 0 5 0;
#X connect 11 0 5 0;
#X connect 16 0 5 0;
#X connect 18 0 25 0;
#X connect 19 0 25 0;
#X connect 20 0 25 0;
#X connect 21 0 25 0;
#X connect 22 0 25 0;
#X connect 27 0 5 0;
#X connect 28 0 25 0;
#X connect 29 0 5 0;
#X connect 30 0 5 0;
#X connect 31 0 5 0;
#X connect 32 0 5 0;
#X connect 33 0 5 0;
#X connect 34 0 25 0;
#X connect 35 0 25 0;
#X connect 37 0 38 0;
#X connect 40 0 41 0;
#X connect 41 0 42 0;
#X connect 42 0 40 1;
#X connect 42 0 37 0;
#X connect 43 0 44 0;
#X connect 44 0 40 0;
#X connect 46 0 5 0;
#X connect 48 0 5 0;
