#N canvas 255 250 1048 590 10;
#X obj 344 11 cnv 15 670 180 empty empty empty 20 12 0 14 -262130 -66577
0;
#X obj 21 23 cnv 15 170 60 empty empty empty 20 12 0 14 -261682 -66577
0;
#X obj 211 334 cnv 15 750 20 empty empty empty 20 12 0 14 -204786 -66577
0;
#X obj 211 406 cnv 15 750 20 empty empty empty 20 12 0 14 -204786 -66577
0;
#X obj 209 481 cnv 15 750 20 empty empty empty 20 12 0 14 -204786 -66577
0;
#X obj 44 236 netsend;
#X msg 30 29 connect localhost 45451;
#X obj 44 257 tgl 15 0 empty empty connected -30 20 0 10 -262144 -1
-1 0 1;
#X msg 50 59 disconnect;
#X obj 83 265 route m w hc;
#X floatatom 83 427 7 0 0 1 mesure - -, f 7;
#X floatatom 106 388 7 0 0 1 weight - -, f 7;
#X obj 226 294 list split 2;
#X obj 226 316 unpack f f;
#X floatatom 228 338 7 0 0 1 - - -, f 7;
#X floatatom 283 337 7 0 0 1 - - -, f 7;
#X floatatom 334 337 7 0 0 1 - - -, f 7;
#X floatatom 383 337 7 0 0 1 - - -, f 7;
#X obj 334 293 list split 3;
#X obj 334 315 unpack f f f, f 17;
#X floatatom 433 337 7 0 0 1 - - -, f 7;
#X floatatom 488 337 7 0 0 1 - - -, f 7;
#X floatatom 537 337 7 0 0 1 - - -, f 7;
#X obj 488 293 list split 3;
#X obj 488 315 unpack f f f, f 17;
#X floatatom 587 337 7 0 0 1 - - -, f 7;
#X floatatom 645 337 7 0 0 1 - - -, f 7;
#X floatatom 694 337 7 0 0 1 - - -, f 7;
#X obj 645 293 list split 3;
#X obj 645 315 unpack f f f, f 17;
#X floatatom 744 337 7 0 0 1 - - -, f 7;
#X floatatom 799 337 7 0 0 1 - - -, f 7;
#X floatatom 848 337 7 0 0 1 - - -, f 7;
#X obj 799 292 list split 3;
#X obj 799 315 unpack f f f, f 17;
#X floatatom 898 337 7 0 0 1 - - -, f 7;
#X obj 129 292 list split 14;
#X floatatom 226 408 7 0 0 1 - - -, f 7;
#X obj 129 316 list split 12;
#X obj 226 366 list split 1;
#X floatatom 770 411 7 0 0 1 - - -, f 7;
#X floatatom 819 411 7 0 0 1 - - -, f 7;
#X obj 770 367 list split 3;
#X obj 770 389 unpack f f f, f 17;
#X floatatom 869 411 7 0 0 1 - - -, f 7;
#X floatatom 333 411 7 0 0 1 - - -, f 7;
#X floatatom 382 411 7 0 0 1 - - -, f 7;
#X floatatom 431 411 7 0 0 1 - - -, f 7;
#X obj 333 389 unpack f f f f, f 25;
#X floatatom 480 411 7 0 0 1 - - -, f 7;
#X floatatom 552 411 7 0 0 1 - - -, f 7;
#X floatatom 601 411 7 0 0 1 - - -, f 7;
#X floatatom 650 411 7 0 0 1 - - -, f 7;
#X obj 552 389 unpack f f f f, f 25;
#X floatatom 699 411 7 0 0 1 - - -, f 7;
#X obj 333 367 list split 4;
#X obj 552 367 list split 4;
#X floatatom 225 484 7 0 0 1 - - -, f 7;
#X floatatom 273 484 7 0 0 1 - - -, f 7;
#X floatatom 322 484 7 0 0 1 - - -, f 7;
#X floatatom 371 484 7 0 0 1 - - -, f 7;
#X floatatom 484 484 7 0 0 1 - - -, f 7;
#X floatatom 533 484 7 0 0 1 - - -, f 7;
#X floatatom 582 484 7 0 0 1 - - -, f 7;
#X obj 484 462 unpack f f f f, f 25;
#X floatatom 631 484 7 0 0 1 - - -, f 7;
#X obj 484 440 list split 4;
#X obj 225 440 list split 5;
#X obj 225 462 unpack f f f f f, f 33;
#X floatatom 420 484 7 0 0 1 - - -, f 7;
#X obj 202 56 list prepend send;
#X obj 202 78 list trim;
#X obj 202 32 r testClient-toServer;
#X obj 603 221 s testClient-toServer;
#X msg 355 33 getMesure;
#X msg 422 33 getWeight;
#X msg 487 34 handCapture;
#X msg 570 53 light \$1;
#X obj 573 33 hsl 128 15 0 1 0 0 empty empty light(0-1) -2 -8 0 10
-262144 -1 -1 0 1;
#X msg 757 87 leds \$1 \$2;
#X obj 757 63 pack f f;
#X obj 777 42 t b f;
#X obj 777 25 tgl 15 0 empty empty empty 17 7 0 10 -262144 -1 -1 0
1;
#X obj 757 25 tgl 15 0 empty empty empty 17 7 0 10 -262144 -1 -1 0
1;
#X obj 832 17 hradio 10 1 0 16 empty empty empty 0 -8 0 10 -262144
-1 -1 5;
#X obj 850 32 hradio 10 1 0 16 empty empty empty 0 -8 0 10 -262144
-1 -1 1;
#X obj 850 47 t b f;
#X obj 832 91 pack f f;
#X obj 832 70 f;
#X msg 832 113 select \$1 \$2;
#X obj 353 87 hradio 15 1 0 11 empty empty PROGRESS 0 -8 0 10 -262144
-1 -1 2;
#X msg 353 112 progress \$1;
#X text 424 112 10-leds progress bar;
#X obj 606 90 hsl 128 15 0 1 0 0 empty empty light(0-1)_+_temps(ms)
-2 -8 0 10 -262144 -1 -1 0 1;
#X msg 603 110 light \$1 2000;
#X obj 634 147 hsl 128 15 0 1 0 0 empty empty light2(0-1)_[+_temps(ms)]
-2 -8 0 10 -262144 -1 -1 0 1;
#X msg 631 167 light2 \$1 200;
#X msg 349 164 clearOffset;
#X msg 441 165 clearWeightOffset;
#X connect 5 0 7 0;
#X connect 5 1 9 0;
#X connect 6 0 5 0;
#X connect 8 0 5 0;
#X connect 9 0 10 0;
#X connect 9 1 11 0;
#X connect 9 2 36 0;
#X connect 12 0 13 0;
#X connect 12 1 18 0;
#X connect 13 0 14 0;
#X connect 13 1 15 0;
#X connect 18 0 19 0;
#X connect 18 1 23 0;
#X connect 19 0 16 0;
#X connect 19 1 17 0;
#X connect 19 2 20 0;
#X connect 23 0 24 0;
#X connect 23 1 28 0;
#X connect 24 0 21 0;
#X connect 24 1 22 0;
#X connect 24 2 25 0;
#X connect 28 0 29 0;
#X connect 28 1 33 0;
#X connect 29 0 26 0;
#X connect 29 1 27 0;
#X connect 29 2 30 0;
#X connect 33 0 34 0;
#X connect 34 0 31 0;
#X connect 34 1 32 0;
#X connect 34 2 35 0;
#X connect 36 0 12 0;
#X connect 36 1 38 0;
#X connect 38 0 39 0;
#X connect 38 1 67 0;
#X connect 39 0 37 0;
#X connect 39 1 55 0;
#X connect 42 0 43 0;
#X connect 43 0 40 0;
#X connect 43 1 41 0;
#X connect 43 2 44 0;
#X connect 48 0 45 0;
#X connect 48 1 46 0;
#X connect 48 2 47 0;
#X connect 48 3 49 0;
#X connect 53 0 50 0;
#X connect 53 1 51 0;
#X connect 53 2 52 0;
#X connect 53 3 54 0;
#X connect 55 0 48 0;
#X connect 55 1 56 0;
#X connect 56 0 53 0;
#X connect 56 1 42 0;
#X connect 64 0 61 0;
#X connect 64 1 62 0;
#X connect 64 2 63 0;
#X connect 64 3 65 0;
#X connect 66 0 64 0;
#X connect 67 0 68 0;
#X connect 67 1 66 0;
#X connect 68 0 57 0;
#X connect 68 1 58 0;
#X connect 68 2 59 0;
#X connect 68 3 60 0;
#X connect 68 4 69 0;
#X connect 70 0 71 0;
#X connect 71 0 5 0;
#X connect 72 0 70 0;
#X connect 74 0 73 0;
#X connect 75 0 73 0;
#X connect 76 0 73 0;
#X connect 77 0 73 0;
#X connect 78 0 77 0;
#X connect 79 0 73 0;
#X connect 80 0 79 0;
#X connect 81 0 80 0;
#X connect 81 1 80 1;
#X connect 82 0 81 0;
#X connect 83 0 80 0;
#X connect 84 0 88 0;
#X connect 85 0 86 0;
#X connect 86 0 88 0;
#X connect 86 1 87 1;
#X connect 87 0 89 0;
#X connect 88 0 87 0;
#X connect 89 0 73 0;
#X connect 90 0 91 0;
#X connect 91 0 73 0;
#X connect 93 0 94 0;
#X connect 94 0 73 0;
#X connect 95 0 96 0;
#X connect 96 0 73 0;
#X connect 97 0 73 0;
#X connect 98 0 73 0;
