#N canvas 533 75 687 635 10;
#X obj 253 55 table \$0-mes;
#X obj 252 76 table \$0-real;
#X obj 64 48 bng 15 250 50 0 empty empty update 17 7 0 10 -262144 -1
-1;
#X obj 91 121 t f f;
#X obj 91 169 t f b;
#X obj 91 191 until;
#X obj 91 213 i;
#X obj 121 213 + 1;
#X msg 129 191 0;
#X obj 91 235 t f f;
#X obj 91 280 unpack f f;
#X obj 91 302 tabwrite \$0-mes;
#X obj 192 302 tabwrite \$0-real;
#X obj 187 356 min;
#X obj 213 356 f;
#X obj 148 353 f;
#X obj 122 353 max;
#X msg 213 335 1e+06;
#X msg 148 331 -1e+06;
#X floatatom 187 378 5 0 0 0 - - -, f 5;
#X floatatom 122 375 5 0 0 0 - - -, f 5;
#X obj 187 397 s \$0-Wmin;
#X obj 122 396 s \$0-Wmax;
#X obj 65 404 t f b;
#X obj 65 426 until;
#X obj 65 448 i;
#X obj 95 448 + 1;
#X msg 103 426 0;
#X obj 103 328 t f f;
#X obj 156 418 -;
#X obj 156 438 s \$0-Wrange;
#X obj 95 513 r \$0-Wrange;
#X msg 65 385 1000;
#X obj 65 470 t f f;
#X obj 252 97 table \$0-conv 1000;
#X obj 94 536 r \$0-Wmin;
#X obj 65 514 *;
#X obj 65 536 +;
#X obj 118 144 s \$0-nbPairs;
#X msg 252 146 resize \$1;
#X obj 264 168 s \$0-mes;
#X obj 252 189 s \$0-real;
#X obj 252 124 r \$0-nbPairs;
#N canvas 8 75 675 364 interpole 0;
#N canvas 7 75 450 383 find-mes-index 0;
#X obj 132 15 inlet;
#X obj 132 201 tabread \$0-mes;
#X obj 147 65 r \$0-nbPairs;
#X obj 132 89 f;
#X obj 132 37 t b f;
#X obj 132 132 until;
#X obj 132 154 i;
#X obj 162 154 + 1;
#X msg 170 132 0;
#X obj 132 176 t f f;
#X obj 132 111 t f b;
#X obj 132 267 t b b;
#X obj 132 294 f;
#X obj 237 197 b;
#X obj 132 316 - 1;
#X obj 132 338 outlet;
#X obj 132 223 >;
#X obj 132 245 sel 1;
#X floatatom 75 135 5 0 0 0 - - -, f 5;
#X connect 0 0 4 0;
#X connect 1 0 16 0;
#X connect 2 0 3 1;
#X connect 3 0 10 0;
#X connect 3 0 18 0;
#X connect 4 0 3 0;
#X connect 4 1 16 1;
#X connect 5 0 6 0;
#X connect 6 0 7 0;
#X connect 6 0 9 0;
#X connect 7 0 6 1;
#X connect 8 0 6 1;
#X connect 9 0 1 0;
#X connect 9 1 12 1;
#X connect 10 0 5 0;
#X connect 10 1 8 0;
#X connect 11 0 12 0;
#X connect 11 1 13 0;
#X connect 12 0 14 0;
#X connect 13 0 5 1;
#X connect 14 0 15 0;
#X connect 16 0 17 0;
#X connect 17 0 11 0;
#X restore 97 86 pd find-mes-index;
#X obj 70 63 t f f;
#X obj 97 165 tabread \$0-mes;
#X obj 192 165 + 1;
#X obj 192 185 tabread \$0-mes;
#X obj 70 190 -;
#X obj 121 204 * -1;
#X obj 121 226 +;
#X obj 70 252 /;
#X obj 70 32 inlet val;
#X obj 70 274 *;
#X obj 70 296 +;
#X obj 286 186 tabread \$0-real;
#X obj 97 108 t f f f f;
#X obj 286 166 + 1;
#X obj 394 186 tabread \$0-real;
#X obj 286 209 -;
#X obj 70 318 outlet;
#X connect 0 0 13 0;
#X connect 1 0 5 0;
#X connect 1 1 0 0;
#X connect 2 0 5 1;
#X connect 2 0 6 0;
#X connect 3 0 4 0;
#X connect 4 0 7 1;
#X connect 5 0 8 0;
#X connect 6 0 7 0;
#X connect 7 0 8 1;
#X connect 8 0 10 0;
#X connect 9 0 1 0;
#X connect 10 0 11 0;
#X connect 11 0 17 0;
#X connect 12 0 16 0;
#X connect 13 0 2 0;
#X connect 13 1 3 0;
#X connect 13 2 14 0;
#X connect 13 3 15 0;
#X connect 14 0 12 0;
#X connect 15 0 11 1;
#X connect 15 0 16 1;
#X connect 16 0 10 1;
#X restore 65 561 pd interpole;
#X obj 64 73 t b b;
#X obj 91 96 text size \$1;
#X obj 91 258 text get \$1;
#X obj 221 556 pack f f;
#X obj 236 447 r \$0-nbPairs;
#X obj 221 469 f;
#X obj 221 491 t b f;
#X msg 221 513 0;
#X obj 221 535 tabread \$0-real;
#X obj 319 535 tabread \$0-real;
#X msg 221 577 bounds 0 \$2 999 \$1;
#X obj 64 27 loadbang;
#X text 61 8 calibrateInterpol pairsText;
#X obj 221 598 s \$0-conv;
#X obj 65 586 tabwrite \$0-conv;
#X obj 418 233 inlet mes;
#X obj 448 281 r \$0-Wrange;
#X obj 447 260 r \$0-Wmin;
#X obj 418 260 -;
#X obj 418 282 /;
#X obj 418 353 outlet real-estim;
#X obj 65 492 / 999;
#X obj 418 329 tabreadl \$0-conv;
#X obj 418 304 * 999;
#X obj 499 489 tabread \$0-conv;
#X obj 432 110 tabread \$0-mes;
#X obj 526 111 tabread \$0-real;
#X floatatom 432 132 5 0 0 0 - - -, f 5;
#X floatatom 526 133 5 0 0 0 - - -, f 5;
#X floatatom 432 67 5 0 0 0 - - -, f 5;
#X obj 432 30 hradio 15 1 0 16 empty empty empty 0 -8 0 10 -262144
-1 -1 0;
#X connect 2 0 44 0;
#X connect 3 0 4 0;
#X connect 3 1 38 0;
#X connect 4 0 5 0;
#X connect 4 1 8 0;
#X connect 5 0 6 0;
#X connect 6 0 7 0;
#X connect 6 0 9 0;
#X connect 7 0 6 1;
#X connect 8 0 6 1;
#X connect 8 0 17 0;
#X connect 8 0 18 0;
#X connect 9 0 46 0;
#X connect 9 1 11 1;
#X connect 9 1 12 1;
#X connect 10 0 11 0;
#X connect 10 0 28 0;
#X connect 10 1 12 0;
#X connect 13 0 14 0;
#X connect 13 0 19 0;
#X connect 14 0 13 1;
#X connect 15 0 16 1;
#X connect 16 0 15 0;
#X connect 16 0 20 0;
#X connect 17 0 14 0;
#X connect 18 0 15 0;
#X connect 19 0 21 0;
#X connect 19 0 29 1;
#X connect 20 0 22 0;
#X connect 20 0 29 0;
#X connect 23 0 24 0;
#X connect 23 1 27 0;
#X connect 23 1 49 0;
#X connect 24 0 25 0;
#X connect 25 0 26 0;
#X connect 25 0 33 0;
#X connect 26 0 25 1;
#X connect 27 0 25 1;
#X connect 28 0 16 0;
#X connect 28 1 13 0;
#X connect 29 0 30 0;
#X connect 31 0 36 1;
#X connect 32 0 23 0;
#X connect 33 0 65 0;
#X connect 33 1 58 1;
#X connect 35 0 37 1;
#X connect 36 0 37 0;
#X connect 37 0 43 0;
#X connect 39 0 40 0;
#X connect 39 0 41 0;
#X connect 42 0 39 0;
#X connect 43 0 58 0;
#X connect 44 0 32 0;
#X connect 44 1 45 0;
#X connect 45 0 3 0;
#X connect 46 0 10 0;
#X connect 47 0 54 0;
#X connect 48 0 49 1;
#X connect 49 0 50 0;
#X connect 50 0 51 0;
#X connect 50 1 53 0;
#X connect 51 0 52 0;
#X connect 52 0 47 0;
#X connect 53 0 47 1;
#X connect 54 0 57 0;
#X connect 55 0 2 0;
#X connect 59 0 62 0;
#X connect 60 0 63 1;
#X connect 61 0 62 1;
#X connect 62 0 63 0;
#X connect 63 0 67 0;
#X connect 65 0 36 0;
#X connect 66 0 64 0;
#X connect 67 0 66 0;
#X connect 69 0 71 0;
#X connect 70 0 72 0;
#X connect 73 0 69 0;
#X connect 73 0 70 0;
#X connect 74 0 73 0;
