#N canvas 473 242 481 536 10;
#X obj 104 116 nbx 5 14 -1e+37 1e+37 0 0 measure-\$1-\$2 measure-\$1-\$2
measure-\$1-\$2 0 -8 0 10 -262144 -1 -1 454.957 256;
#X obj 249 45 r MEASURE;
#X obj 317 45 r num/side;
#X obj 317 67 unpack f f;
#X obj 317 88 == \$1;
#X obj 317 110 &&;
#X obj 317 132 change;
#X obj 317 154 sel 0 1;
#X msg 317 176 stop;
#X obj 346 199 del 100;
#X msg 346 219 1;
#X msg 317 198 0;
#X obj 317 242 change;
#X obj 249 269 spigot;
#X obj 285 424 s measure-\$1-\$2;
#X obj 374 87 == \$2;
#X obj 313 291 spigot;
#X msg 358 292 0;
#X obj 249 344 +;
#X obj 280 344 * 0.9;
#X obj 249 322 * 0.1;
#X obj 249 292 t f f;
#X obj 234 375 f;
#X obj 335 345 sel 0;
#X floatatom 192 362 5 0 0 0 - - -, f 5;
#X obj 234 402 moses 300;
#X connect 1 0 13 0;
#X connect 2 0 3 0;
#X connect 3 0 4 0;
#X connect 3 1 15 0;
#X connect 4 0 5 0;
#X connect 5 0 6 0;
#X connect 6 0 7 0;
#X connect 7 0 8 0;
#X connect 7 1 9 0;
#X connect 8 0 9 0;
#X connect 8 0 11 0;
#X connect 9 0 10 0;
#X connect 10 0 12 0;
#X connect 10 0 16 1;
#X connect 11 0 12 0;
#X connect 12 0 13 1;
#X connect 12 0 23 0;
#X connect 13 0 21 0;
#X connect 15 0 5 1;
#X connect 16 0 17 0;
#X connect 16 0 19 0;
#X connect 17 0 16 1;
#X connect 18 0 19 0;
#X connect 18 0 22 1;
#X connect 18 0 24 0;
#X connect 19 0 18 1;
#X connect 20 0 18 0;
#X connect 21 0 20 0;
#X connect 21 1 16 0;
#X connect 22 0 25 0;
#X connect 23 0 22 0;
#X connect 25 1 14 0;
#X coords 0 -1 1 1 85 35 2 100 100;
