#N canvas 204 79 450 363 10;
#X obj 106 35 t b b;
#X obj 106 84 makefilename %04d;
#X obj 123 104 makefilename %02d;
#X obj 141 125 makefilename %02d;
#X obj 158 147 makefilename %02d;
#X obj 176 170 makefilename %02d;
#X obj 193 193 makefilename %02d;
#X msg 106 249 symbol \$1-\$2-\$3_\$4h-\$5mn-\$6sec;
#X obj 106 222 pack s s s s s s;
#X obj 106 271 outlet;
#X obj 106 13 inlet;
#X obj 324 80 time;
#X obj 106 58 date;
#X obj 178 57 time;
#X connect 0 0 12 0;
#X connect 0 1 13 0;
#X connect 1 0 8 0;
#X connect 2 0 8 1;
#X connect 3 0 8 2;
#X connect 4 0 8 3;
#X connect 5 0 8 4;
#X connect 6 0 8 5;
#X connect 7 0 9 0;
#X connect 8 0 7 0;
#X connect 10 0 0 0;
#X connect 12 0 1 0;
#X connect 12 1 2 0;
#X connect 12 2 3 0;
#X connect 13 0 4 0;
#X connect 13 1 5 0;
#X connect 13 2 6 0;
