#N canvas 286 98 450 363 10;
#X obj 106 58 zexy/date;
#X obj 168 57 zexy/time;
#X obj 106 35 t b b;
#X obj 106 84 makefilename %04d;
#X obj 123 104 makefilename %02d;
#X obj 141 125 makefilename %02d;
#X obj 158 147 makefilename %02d;
#X obj 176 170 makefilename %02d;
#X obj 193 193 makefilename %02d;
#X msg 106 249 symbol \$1-\$2-\$3_\$4h-\$5mn-\$6sec;
#X obj 106 222 pack s s s s s s;
#X obj 106 271 outlet;
#X obj 106 13 inlet;
#X connect 0 0 3 0;
#X connect 0 1 4 0;
#X connect 0 2 5 0;
#X connect 1 0 6 0;
#X connect 1 1 7 0;
#X connect 1 2 8 0;
#X connect 2 0 0 0;
#X connect 2 1 1 0;
#X connect 3 0 10 0;
#X connect 4 0 10 1;
#X connect 5 0 10 2;
#X connect 6 0 10 3;
#X connect 7 0 10 4;
#X connect 8 0 10 5;
#X connect 9 0 11 0;
#X connect 10 0 9 0;
#X connect 12 0 2 0;
