#N canvas 18 75 733 513 10;
#N canvas 0 50 450 250 (subpatch) 0;
#X array \$0-t 1000 float 4;
#X coords 0 1 1000 -1 200 140 1 0 0;
#X restore 101 125 graph;
#X obj 431 219 hcs/folder_list;
#X obj 412 73 r showGraphe;
#X obj 412 95 route \$1;
#X obj 412 145 unpack s f;
#X msg 412 172 symbol graphs/\$1+*;
#X obj 428 321 list split;
#X obj 456 365 route bang;
#X msg 540 409 read \$1 \, normalize;
#N canvas 646 186 704 575 diff 1;
#X obj 159 171 i;
#X obj 186 171 + 1;
#X msg 203 117 0;
#X obj 159 284 t f f;
#X obj 161 332 -;
#X obj 159 98 t b b;
#X obj 159 193 t f f;
#X obj 132 54 bng 15 250 50 0 empty empty empty 17 7 0 10 -262144 -1
-1;
#X msg 132 417 normalize;
#X obj 132 76 t b b;
#X obj 159 143 until;
#X msg 159 121 999;
#X obj 159 263 +;
#X obj 159 241 * 0.04;
#X obj 191 262 * 0.96;
#X obj 161 354 * 100;
#X obj 159 219 tabread \$0-graphe;
#X obj 276 218 tabread \$0-graphe;
#X obj 161 393 tabwrite \$0-t;
#X obj 132 445 s \$0-t;
#X obj 132 31 inlet;
#X obj 268 116 * -1;
#X obj 268 138 + 1;
#X obj 260 80 clip 0 1;
#X obj 234 17 inlet;
#X obj 234 40 t b f;
#X floatatom 411 169 5 0 0 0 - - -, f 5;
#X obj 353 123 /;
#X obj 353 78 pow 1;
#X msg 353 99 1 \$1;
#X floatatom 377 185 5 0 0 0 - - -, f 5;
#X obj 343 157 max 20;
#X connect 0 0 1 0;
#X connect 0 0 6 0;
#X connect 1 0 0 1;
#X connect 2 0 0 1;
#X connect 2 0 17 0;
#X connect 3 0 4 1;
#X connect 3 1 4 0;
#X connect 4 0 15 0;
#X connect 5 0 11 0;
#X connect 5 1 2 0;
#X connect 6 0 16 0;
#X connect 6 1 18 1;
#X connect 7 0 9 0;
#X connect 9 0 8 0;
#X connect 9 1 5 0;
#X connect 10 0 0 0;
#X connect 11 0 10 0;
#X connect 12 0 3 0;
#X connect 12 0 14 0;
#X connect 13 0 12 0;
#X connect 14 0 12 1;
#X connect 15 0 18 0;
#X connect 16 0 13 0;
#X connect 17 0 4 1;
#X connect 17 0 14 0;
#X connect 20 0 7 0;
#X connect 21 0 22 0;
#X connect 22 0 14 1;
#X connect 23 0 21 0;
#X connect 23 0 13 1;
#X connect 23 0 28 0;
#X connect 24 0 25 0;
#X connect 25 0 7 0;
#X connect 25 1 23 0;
#X connect 27 0 26 0;
#X connect 27 0 31 0;
#X connect 28 0 29 0;
#X connect 29 0 27 0;
#X connect 31 0 15 1;
#X connect 31 0 30 0;
#X restore 513 454 pd diff;
#X obj 540 433 s \$0-graphe;
#X obj 446 481 table \$0-graphe 1000;
#X obj 513 387 t b s;
#X obj 456 343 list split 1;
#X obj 558 244 + 0;
#X msg 493 121 Antoine 1;
#X obj 412 194 t b s b;
#X obj 431 243 list prepend;
#X obj 431 267 t a;
#X msg 528 218 list;
#X obj 412 290 list;
#X obj 101 113 cnv 15 200 12 empty \$0-name Antoine+2016-6-24_19h-18mn-44sec
2 6 0 9 -233017 -66577 0;
#X msg 608 348 label \$1;
#X obj 608 370 s \$0-name;
#X obj 607 306 hcs/split_path;
#X msg 606 198 const 0;
#X obj 642 228 s \$0-t;
#X msg 631 283 symbol;
#X obj 412 117 t a b;
#X obj 617 454 pow 4;
#X obj 617 433 r grapheLowpass;
#X connect 1 0 17 0;
#X connect 2 0 3 0;
#X connect 3 0 28 0;
#X connect 4 0 5 0;
#X connect 4 1 14 0;
#X connect 5 0 16 0;
#X connect 6 1 13 0;
#X connect 7 1 12 0;
#X connect 8 0 10 0;
#X connect 12 0 9 0;
#X connect 12 1 8 0;
#X connect 12 1 24 0;
#X connect 13 0 7 0;
#X connect 14 0 6 1;
#X connect 15 0 4 0;
#X connect 16 0 20 0;
#X connect 16 1 1 0;
#X connect 16 2 19 0;
#X connect 17 0 18 0;
#X connect 18 0 17 1;
#X connect 18 0 20 1;
#X connect 19 0 18 0;
#X connect 20 0 6 0;
#X connect 22 0 23 0;
#X connect 24 1 22 0;
#X connect 25 0 26 0;
#X connect 25 0 27 0;
#X connect 25 0 10 0;
#X connect 27 0 22 0;
#X connect 28 0 4 0;
#X connect 28 1 25 0;
#X connect 29 0 9 1;
#X connect 30 0 29 0;
#X coords 0 -1 1 1 201 165 1 100 100;
