#N canvas 5 75 497 626 10;
#X obj 92 74 list split 1;
#X obj 92 101 symbol;
#X obj 92 242 text get Sessions;
#X obj 92 195 i;
#X obj 92 220 t f f;
#X obj 92 286 route name;
#X obj 92 147 text size Sessions;
#X obj 92 169 until;
#X obj 120 195 + 1;
#X obj 92 333 f;
#X obj 92 308 b;
#X obj 92 355 t b f;
#X obj 92 444 list;
#X obj 92 466 list split 1;
#X obj 92 488 pack f f;
#X obj 215 243 t a;
#X obj 92 511 s showSession;
#X obj 139 99 list split 1;
#X obj 92 45 inlet name first viewers_list;
#X obj 200 386 b;
#X obj 92 123 t b s b;
#X msg 131 172 0;
#X obj 92 264 list trim;
#X obj 323 329 list-abs/list-drip;
#X msg 323 351 \$1 -1;
#X obj 92 376 i;
#X obj 120 376 + 1;
#X obj 92 398 moses;
#X obj 92 420 b;
#X connect 0 0 1 0;
#X connect 0 1 17 0;
#X connect 1 0 20 0;
#X connect 2 0 22 0;
#X connect 3 0 4 0;
#X connect 3 0 8 0;
#X connect 4 0 2 0;
#X connect 4 1 9 1;
#X connect 5 0 10 0;
#X connect 6 0 7 0;
#X connect 7 0 3 0;
#X connect 8 0 3 1;
#X connect 9 0 11 0;
#X connect 10 0 9 0;
#X connect 11 0 25 0;
#X connect 11 1 14 1;
#X connect 12 0 13 0;
#X connect 13 0 14 0;
#X connect 13 1 12 1;
#X connect 13 2 19 0;
#X connect 14 0 16 0;
#X connect 15 0 12 1;
#X connect 17 0 27 1;
#X connect 17 1 15 0;
#X connect 17 1 23 0;
#X connect 18 0 0 0;
#X connect 19 0 7 1;
#X connect 20 0 6 0;
#X connect 20 1 5 1;
#X connect 20 2 21 0;
#X connect 21 0 3 1;
#X connect 21 0 25 1;
#X connect 22 0 5 0;
#X connect 23 0 24 0;
#X connect 24 0 16 0;
#X connect 25 0 26 0;
#X connect 25 0 27 0;
#X connect 26 0 25 1;
#X connect 27 1 28 0;
#X connect 28 0 12 0;
